<?xml version="1.0" encoding="UTF-8"?>
<svg version="1.1" xmlns="http://www.w3.org/2000/svg" width="512" height="512">
<path d="M0 0 C1.9375 1.5 1.9375 1.5 3 4 C3.45343586 8.17503205 3.13155754 11.95872306 2 16 C3.80759608 17.80759608 6.74732741 17.6970896 9.1875 18.125 C21.90144256 20.81523403 31.96245049 26.68562465 41 36 C41.93392578 36.92039062 41.93392578 36.92039062 42.88671875 37.859375 C48.88535337 44.16805141 54.24262078 52.72786235 57 61 C59.45033121 62.17747059 61.84925583 63.20157857 64.375 64.1875 C73.65340178 68.02276612 82.00936837 72.70324027 88 81 C89.67517931 86.02553792 90.00081137 91.25478377 88.1640625 96.29296875 C85.28511603 101.44222535 81.63064699 104.27573613 76 106 C73.67223383 106.37021645 71.3390806 106.70972855 69 107 C69.71285156 107.70125 70.42570313 108.4025 71.16015625 109.125 C79.86906051 117.73939138 79.86906051 117.73939138 83.5625 122.1875 C94.65838359 135.02851083 110.6473175 143.04137197 125.75 150.125 C138.81740299 156.25984462 149.5227978 162.95360381 160 173 C161.175625 174.08087891 161.175625 174.08087891 162.375 175.18359375 C168.56140999 181.04605322 174.26806104 187.80418311 177 196 C176.95887845 197.86691832 176.91372924 199.73400492 176.83251953 201.59960938 C176.39960962 209.38279879 176.39960962 209.38279879 179.125 216.5 C182.56715761 219.49318053 183.61660934 219.18264128 188 219 C191.95936863 222.35850598 194.5153432 226.1222094 196.875 230.6875 C197.21305664 231.33614014 197.55111328 231.98478027 197.89941406 232.65307617 C210.33131662 257.1135119 215.70159034 282.95624111 211.53515625 310.26953125 C211.35855469 311.50058594 211.18195313 312.73164063 211 314 C210.87906982 314.7415332 210.75813965 315.48306641 210.63354492 316.24707031 C209.66906288 323.2495317 210.71838931 329.25873813 212.1875 336.125 C219.70372216 373.97933246 221 411.25801832 221 450 C165.56 450 110.12 450 53 450 C53.33 440.43 53.66 430.86 54 421 C54.06133025 413.72623211 54.09962359 406.46022222 54.0625 399.1875 C54.05745123 397.39257944 54.05289456 395.59765743 54.04882812 393.80273438 C54.03814369 389.53511816 54.02108647 385.26757695 54 381 C52.02 381.33 50.04 381.66 48 382 C47.8453125 383.1446875 47.8453125 383.1446875 47.6875 384.3125 C46.91143392 387.34621285 46.43110725 388.10456045 44 390 C33.71454279 393.659394 22.46210676 393.29480973 11.6875 393.3125 C10.65201523 393.31774185 10.65201523 393.31774185 9.59561157 393.3230896 C-8.75904456 393.37450015 -8.75904456 393.37450015 -15 391 C-17.54218183 388.33584656 -17.97414146 387.30478594 -18.29296875 383.546875 C-18.25816406 382.29390625 -18.22335938 381.0409375 -18.1875 379.75 C-18.16042969 378.48671875 -18.13335937 377.2234375 -18.10546875 375.921875 C-18.07066406 374.95765625 -18.03585938 373.9934375 -18 373 C-19.01578125 372.96261719 -20.0315625 372.92523438 -21.078125 372.88671875 C-33.69426512 372.32969439 -45.81569331 371.75007507 -55 362 C-57.42094428 358.62038605 -59.36353047 355.13404491 -60.55615234 351.13525391 C-62.36462701 345.37406782 -65.00878593 342.69985238 -69.875 339.25 C-70.48730469 338.79496094 -71.09960938 338.33992188 -71.73046875 337.87109375 C-72.92512369 336.98341653 -74.12572574 336.10367458 -75.33276367 335.23291016 C-76.86372356 334.10077552 -78.33238369 332.88564273 -79.79296875 331.6640625 C-81.86473114 329.73150913 -81.86473114 329.73150913 -84.4375 330.125 C-86.22722896 330.73612696 -88.00802782 331.37376312 -89.78125 332.03125 C-102.304417 335.80035851 -115.44945029 331.38102472 -126.59765625 325.47265625 C-141.08446274 316.59212609 -154.40116797 302.51528918 -158.5859375 285.63671875 C-159.80356022 277.88298918 -160.40164955 268.82651038 -156 262 C-152.84013238 258.16059095 -149.43500362 254.5920922 -146 251 C-144.74111393 249.54933051 -143.4899415 248.09189508 -142.25 246.625 C-136.57135123 240.15213462 -130.91115513 235.65062379 -122.08984375 234.6796875 C-105.49973505 234.07494478 -91.91839622 240.74792083 -79.625 251.5 C-78.0680473 252.98412749 -76.52502653 254.48308531 -75 256 C-74.37609375 256.58910156 -73.7521875 257.17820312 -73.109375 257.78515625 C-66.72923249 264.32336535 -60.66612477 274.96693708 -59 284 C-59.10864258 286.02368164 -59.10864258 286.02368164 -59.39453125 288.16015625 C-60.45567641 296.89649687 -60.45567641 296.89649687 -57.7109375 304.94580078 C-52.36118074 310.50948442 -45.82818888 314.8586512 -37.96655273 315.04931641 C-35.49747687 315.06324122 -33.03134732 315.03525599 -30.5625 315 C-24.59407147 314.9525802 -18.70362145 315.00558161 -12.75 315.5 C8.2013308 317.19278902 29.63885725 316.30631873 48 305 C45.81779664 293.86755372 43.49976698 282.76695538 41.09326172 271.6809082 C40.69442443 269.83657297 40.2989705 267.99150316 39.90673828 266.14575195 C39.33101962 263.43787421 38.74478604 260.73246087 38.15625 258.02734375 C37.98428101 257.20854233 37.81231201 256.38974091 37.63513184 255.54612732 C35.97037358 247.99864232 33.7533001 242.86615125 27.32275391 238.34814453 C22.53736041 235.57066472 17.25681613 234.19994688 11.98242188 232.63476562 C8.27031044 231.45325837 5.6165091 230.6033452 2.8046875 227.8515625 C1.60323322 223.59398179 2.45565785 220.18886005 3.4375 215.9375 C3.62344727 215.0722168 3.80939453 214.20693359 4.00097656 213.31542969 C6.13979318 203.72703534 9.01490423 194.35330008 12 185 C7.71 184.34 3.42 183.68 -1 183 C-0.649375 184.711875 -0.29875 186.42375 0.0625 188.1875 C1.96896787 199.84575673 1.06550984 211.94019494 -5.984375 221.765625 C-13.43654051 230.55404088 -21.26858096 234.27024797 -32.6640625 235.22265625 C-43.37062644 235.5694886 -51.61135922 232.58547501 -60 226 C-60.61746094 225.52046875 -61.23492187 225.0409375 -61.87109375 224.546875 C-68.13803562 219.01968351 -73.17258677 210.12483081 -74.50390625 201.87890625 C-73.80676677 197.89602413 -72.03023952 196.60634175 -69 194 C-68.17242187 193.20980469 -67.34484375 192.41960937 -66.4921875 191.60546875 C-50.01822159 176.38549129 -50.01822159 176.38549129 -44.30859375 175.65625 C-42 176 -42 176 -39.9375 178.125 C-38.59716361 180.11388625 -37.30824915 182.13804173 -36.0625 184.1875 C-33.85020081 187.20427163 -32.54352939 188.01568628 -29 189 C-26.85531351 186.85531351 -27.2604212 182.41555106 -26.9375 179.4375 C-26.84662109 178.63119141 -26.75574219 177.82488281 -26.66210938 176.99414062 C-26.43752551 174.99652623 -26.21826764 172.9983144 -26 171 C-26.58394531 170.73058594 -27.16789063 170.46117187 -27.76953125 170.18359375 C-40.36903185 163.49769413 -48.80717945 149.40251527 -55 137 C-55 136.34 -55 135.68 -55 135 C-55.59949463 135.18175781 -56.19898926 135.36351562 -56.81665039 135.55078125 C-59.56238776 136.37712451 -62.31229822 137.18864479 -65.0625 138 C-66.00544922 138.28617188 -66.94839844 138.57234375 -67.91992188 138.8671875 C-74.42351247 140.77067743 -80.77156 142.5991694 -87.1875 139.4375 C-91.32390499 137.14038966 -93.5871439 134.5318026 -95 130 C-95.89534566 124.09277693 -95.01499256 120.20405175 -92 115 C-89.90625 112.5078125 -89.90625 112.5078125 -87.5 110.125 C-86.18708984 108.80435547 -86.18708984 108.80435547 -84.84765625 107.45703125 C-82.00035483 105.00030615 -79.2501137 103.55302584 -75.9375 101.8125 C-72.9467514 99.75164803 -71.2849104 98.29326444 -70.48925781 94.68164062 C-70.01019046 89.76274089 -70.05692367 84.85942941 -70.078125 79.921875 C-70.11204259 62.31864474 -63.03213845 46.72267857 -51 34 C-49.35976076 32.63428744 -47.69994155 31.29064104 -46 30 C-46.74056641 29.22076172 -46.74056641 29.22076172 -47.49609375 28.42578125 C-48.13675781 27.72839844 -48.77742188 27.03101562 -49.4375 26.3125 C-50.07558594 25.62800781 -50.71367187 24.94351563 -51.37109375 24.23828125 C-53.18592896 21.74451488 -53.70853425 20.0503398 -54 17 C-53.02269781 14.29362471 -52.59487555 13.29743778 -50 12 C-47.1875 11.625 -47.1875 11.625 -44 12 C-41.5 14.3125 -41.5 14.3125 -39 17 C-34.40813115 19.95920437 -30.36936153 20.72111207 -25 20 C-19.58540225 18.76900413 -15.57648895 17.43636821 -12 13 C-10.95723837 10.01367915 -10.95723837 10.01367915 -10.375 6.8125 C-9.97411322 4.86230373 -9.52852698 2.91954029 -9 1 C-5.9167365 -0.54163175 -3.39121901 -0.29747535 0 0 Z " fill="#323844" transform="translate(225,28)"/>
<path d="M0 0 C3.3514118 3.00471403 5.35238431 5.79857998 7 10 C6.91234375 11.010625 6.8246875 12.02125 6.734375 13.0625 C7.11415423 18.69216855 9.63511179 22.41378857 12.5 27.1875 C13.70197571 29.24991096 14.9037916 31.31241507 16.10546875 33.375 C16.74274902 34.45652344 17.3800293 35.53804688 18.03662109 36.65234375 C21.01016364 41.72237799 23.91161936 46.83296447 26.81808472 51.94165039 C28.48604625 54.87001446 30.16136386 57.79416378 31.8359375 60.71875 C34.36170418 65.13153507 36.88267904 69.54700969 39.39845276 73.96549988 C40.88558296 76.57734303 42.37384927 79.18853805 43.8621521 81.79971313 C44.57594859 83.05279193 45.28919012 84.30618702 46.00186157 85.55990601 C46.98807181 87.29466899 47.97640344 89.02822545 48.96484375 90.76171875 C49.5280835 91.75131592 50.09132324 92.74091309 50.67163086 93.76049805 C51.8133814 95.89585837 51.8133814 95.89585837 53 97 C55.90800134 97.61872369 57.19300084 97.78819723 60 97 C63.65107411 94.32689217 66.7725292 91.16129237 70 88 C71.34669805 86.86607023 72.70030389 85.74026415 74.0625 84.625 C85.84950683 74.30251105 95.15548737 59.77152159 102.72265625 46.1328125 C103.14417969 45.42898438 103.56570313 44.72515625 104 44 C104.33 44 104.66 44 105 44 C111.22988969 79.88416461 112 114.10839994 112 151 C65.14 151 18.28 151 -30 151 C-30 136.375 -30 136.375 -29.5 130.1875 C-29.4071875 129.00542969 -29.314375 127.82335937 -29.21875 126.60546875 C-29.1465625 125.74566406 -29.074375 124.88585937 -29 124 C-27.85144531 123.82984375 -26.70289063 123.6596875 -25.51953125 123.484375 C-6.2673474 120.84500098 -6.2673474 120.84500098 10 111 C10.54140625 110.51015625 11.0828125 110.0203125 11.640625 109.515625 C18.34869024 102.67204329 21.26289763 93.28664695 21.5625 83.875 C21.06471596 72.81448134 16.19918925 64.25768475 11.0769043 54.70385742 C7.70939677 48.41549582 4.52063988 42.05747434 1.4375 35.625 C1.00808105 34.7395752 0.57866211 33.85415039 0.13623047 32.94189453 C-0.26063965 32.10770996 -0.65750977 31.27352539 -1.06640625 30.4140625 C-1.41646729 29.6813916 -1.76652832 28.9487207 -2.12719727 28.19384766 C-4.88203322 21.26938448 -5.64818808 11.54871121 -3.10546875 4.53125 C-2 2.625 -2 2.625 0 0 Z " fill="#525C68" transform="translate(321,327)"/>
<path d="M0 0 C3.69591067 1.35781664 6.82998287 3.03836196 10.125 5.1875 C11.08921875 5.80882812 12.0534375 6.43015625 13.046875 7.0703125 C14.93816809 8.30615745 16.82413438 9.55021688 18.703125 10.8046875 C31.95861877 19.52540709 45.05558007 24.86266961 61.0625 25.1875 C66.43753532 25.52017816 66.43753532 25.52017816 68.78125 27.51953125 C70.14285436 29.62420628 71.07983477 31.66996787 72 34 C72.35191406 34.71929687 72.70382812 35.43859375 73.06640625 36.1796875 C74.14761804 38.42190532 75.08774539 40.68427677 76 43 C76.30164063 43.72445312 76.60328125 44.44890625 76.9140625 45.1953125 C78.90085631 50.67292161 79.27997024 55.85472158 79.3125 61.625 C79.31797852 62.32947266 79.32345703 63.03394531 79.32910156 63.75976562 C79.19629417 73.56919411 76.27297279 84.01939803 69.1875 91.125 C68.465625 91.74375 67.74375 92.3625 67 93 C66.67128906 92.3503125 66.34257812 91.700625 66.00390625 91.03125 C64.50288522 88.39531063 63.11615006 86.18093017 61 84 C58.57070452 83.65478433 56.55295119 83.92365366 54.125 84.21484375 C52 84 52 84 50.3125 82.25390625 C49.06556776 80.20992926 47.97150968 78.18711726 47 76 C43.94367168 78.79056064 43.08107355 80.80104691 42.796875 85.00390625 C42.78140625 86.17824219 42.7659375 87.35257812 42.75 88.5625 C42.71132813 90.29693359 42.71132813 90.29693359 42.671875 92.06640625 C43.62073872 103.4414749 49.33065515 113.13766428 54.4375 123.125 C55.20973596 124.64935907 55.98122573 126.17409639 56.75195312 127.69921875 C58.17435751 130.51164516 59.60115555 133.32174254 61.03295898 136.12939453 C61.51513382 137.07978607 61.51513382 137.07978607 62.00704956 138.04937744 C62.70049459 139.41163025 63.39980427 140.77090657 64.10354614 142.12786865 C64.46133148 142.82543274 64.81911682 143.52299683 65.18774414 144.24169922 C65.51126358 144.86680389 65.83478302 145.49190857 66.16810608 146.13595581 C69.83249479 154.34683741 68.9206732 164.47013744 66.0625 172.75 C62.47632632 181.09396661 56.22281724 188.88859138 48 193 C37.93984069 196.71366762 27.73918449 199.07046344 17 199 C17.00666183 198.28480698 17.01332367 197.56961395 17.02018738 196.83274841 C17.94333699 129.06586377 17.94333699 129.06586377 7.08007812 62.39355469 C5.08832012 54.57575225 3.30465256 46.7158698 1.6144104 38.82800293 C1.29292851 37.3398487 0.96513596 35.85304106 0.63046265 34.36779785 C-1.47014376 25.01343338 -2.37193994 16.59571994 -1 7 C-0.90114502 6.2255957 -0.80229004 5.45119141 -0.70043945 4.65332031 C-0.492485 3.09858561 -0.25203263 1.54820044 0 0 Z " fill="#7F909A" transform="translate(275,252)"/>
<path d="M0 0 C18.22453432 23.18973253 23.7201195 52.19854406 22 81 C21.3252285 86.55726445 19.8340285 91.70931342 18 97 C17.57589844 98.23492187 17.15179688 99.46984375 16.71484375 100.7421875 C10.14373925 118.80920717 -0.48606635 133.98760463 -13.3125 148.125 C-13.80403564 148.66987061 -14.29557129 149.21474121 -14.80200195 149.77612305 C-17.61656253 152.80214645 -20.34357433 155.06855475 -24 157 C-30.06025112 147.53321021 -35.54572306 137.76888766 -40.98681641 127.93579102 C-41.56222168 126.89865967 -42.13762695 125.86152832 -42.73046875 124.79296875 C-43.28009277 123.7982959 -43.8297168 122.80362305 -44.39599609 121.77880859 C-45.84885605 119.26184482 -47.41240908 116.88623713 -49.05078125 114.48828125 C-49.69402344 113.33714844 -50.33726562 112.18601562 -51 111 C-50.30932617 108.84448242 -50.30932617 108.84448242 -49 107 C-47.515 106.505 -47.515 106.505 -46 106 C-45.29789115 104.68498465 -44.63702927 103.34774476 -44 102 C-42.77412044 100.50078243 -41.52124604 99.02344748 -40.25 97.5625 C-29.09469837 83.86728452 -27.59343238 69.01522419 -29 52 C-30.48636833 43.36412715 -34.42749337 35.54913586 -38.86328125 28.07421875 C-40 26 -40 26 -40 24 C-39.44650879 23.81937012 -38.89301758 23.63874023 -38.32275391 23.45263672 C-23.23236043 18.48112936 -9.22888791 13.84333187 0 0 Z " fill="#7F909A" transform="translate(403,253)"/>
<path d="M0 0 C3.07811689 1.48300619 5.81474451 3.21434306 8.61743164 5.17260742 C19.761394 12.91732493 31.79091201 19.10885974 44.03125 24.93359375 C59.12315492 32.16234909 76.56864429 44.31158239 84 60 C85.01507497 64.3371385 83.78399005 66.76397456 81.5625 70.4375 C72.1779871 83.45331626 56.88118025 87.98718829 41.6796875 90.5625 C29.50689131 92.00979636 17.84016517 91.21418625 6 88 C5.1440625 87.79503906 4.288125 87.59007812 3.40625 87.37890625 C-7.94017805 84.41336256 -18.12204061 78.55718476 -27 71 C-25.86336255 62.98920363 -24.16886564 55.46992142 -21.5625 47.8125 C-21.21977051 46.79655762 -20.87704102 45.78061523 -20.52392578 44.73388672 C-17.80380239 36.88576029 -14.70184713 29.23418709 -11.375 21.625 C-10.9322876 20.61026611 -10.4895752 19.59553223 -10.03344727 18.55004883 C-7.12670082 12.06956575 -3.79226501 6.00400758 0 0 Z " fill="#7F909A" transform="translate(306,167)"/>
<path d="M0 0 C1.17139526 0.00241699 1.17139526 0.00241699 2.36645508 0.00488281 C12.23021339 0.21098818 21.04799145 2.99345955 29.3125 8.375 C27.22278812 25.71516244 19.71157635 40.0648246 6.3125 51.375 C-4.0244388 59.00529298 -18.34691969 66.4898789 -31.49609375 66.5078125 C-32.40810547 66.50910156 -33.32011719 66.51039062 -34.25976562 66.51171875 C-35.20529297 66.50785156 -36.15082031 66.50398438 -37.125 66.5 C-38.06666016 66.50386719 -39.00832031 66.50773437 -39.97851562 66.51171875 C-40.89181641 66.51042969 -41.80511719 66.50914063 -42.74609375 66.5078125 C-43.57423584 66.50668457 -44.40237793 66.50555664 -45.25561523 66.50439453 C-47.81383456 66.36827805 -50.19065651 65.93529446 -52.6875 65.375 C-56.75795704 53.16362889 -53.15221839 38.25408127 -47.875 27.0625 C-40.99009758 14.13437027 -30.45971765 7.07727892 -16.6875 2.375 C-11.01707967 0.72426477 -5.89758113 -0.01283618 0 0 Z " fill="#7F909A" transform="translate(220.6875,57.625)"/>
<path d="M0 0 C1.19025554 0.61605534 2.37518995 1.24249603 3.5546875 1.87890625 C7.44941998 3.92765381 11.30241175 5.89173102 15.4296875 7.44140625 C15.49223511 10.44369153 15.48097193 13.43893593 15.4296875 16.44140625 C15.42582031 17.1684375 15.42195313 17.89546875 15.41796875 18.64453125 C15.25706876 21.55182758 14.97561557 23.81488156 13.02734375 26.05078125 C11.3671875 27.44140625 11.3671875 27.44140625 8.4296875 29.44140625 C7.89859375 29.09207031 7.3675 28.74273437 6.8203125 28.3828125 C6.11390625 27.92777344 5.4075 27.47273438 4.6796875 27.00390625 C3.98359375 26.55144531 3.2875 26.09898437 2.5703125 25.6328125 C-1.71610264 23.24712524 -5.71573263 23.30589614 -10.5703125 23.12890625 C-16.79844585 22.82618665 -22.0703783 21.47448982 -27.8984375 19.30078125 C-31.66037497 18.09080136 -34.65414518 18.0719565 -38.5703125 18.44140625 C-39.77592434 19.42408484 -39.77592434 19.42408484 -39.66796875 21.2890625 C-39.65636719 22.01996094 -39.64476562 22.75085938 -39.6328125 23.50390625 C-39.6121875 24.80328125 -39.5915625 26.10265625 -39.5703125 27.44140625 C-36.58278359 28.48150891 -33.58131245 29.47139023 -30.5703125 30.44140625 C-29.72726563 30.71597656 -28.88421875 30.99054688 -28.015625 31.2734375 C-21.58661815 33.20977042 -15.54123505 33.85155204 -8.83203125 34.03515625 C-5.14515232 34.49436033 -2.71154737 35.47407452 0.4296875 37.44140625 C0.7596875 38.43140625 1.0896875 39.42140625 1.4296875 40.44140625 C0.21719165 42.70798141 -1.04379354 44.79589186 -2.4453125 46.94140625 C-7.65829264 55.21950249 -11.74636341 63.9197155 -15.7734375 72.82177734 C-16.5703125 74.44140625 -16.5703125 74.44140625 -17.5703125 75.44140625 C-32.8734383 76.79038121 -46.49082847 72.44090552 -58.60546875 63.1015625 C-66.34387364 56.60770221 -71.52430786 49.11924863 -76.5703125 40.44140625 C-77.43462891 39.09175781 -77.43462891 39.09175781 -78.31640625 37.71484375 C-79.5703125 35.44140625 -79.5703125 35.44140625 -79.5703125 32.44140625 C-79.02318604 32.17102539 -78.47605957 31.90064453 -77.91235352 31.62207031 C-68.0731365 26.71941357 -58.6569468 21.78471234 -49.8828125 15.12890625 C-42.9011034 9.89448854 -36.15312355 7.16558809 -27.81640625 4.7578125 C-22.69834369 3.26538039 -18.16622128 0.95649006 -13.46484375 -1.5546875 C-8.45084157 -3.29368691 -4.74999285 -2.07357456 0 0 Z " fill="#FCD9D0" transform="translate(260.5703125,123.55859375)"/>
<path d="M0 0 C4.64842036 20.08298119 3.12332569 41.51465363 3 62 C0.36 62.99 -2.28 63.98 -5 65 C-5.309375 64.34 -5.61875 63.68 -5.9375 63 C-8.31412334 60.69539555 -8.8208537 60.68187203 -12 60.625 C-15.45153577 60.80629646 -18.69442976 61.30294561 -22.07421875 62.01171875 C-28.027115 63.12183457 -33.77159473 63.26316065 -39.8125 63.1875 C-41.30813477 63.1865332 -41.30813477 63.1865332 -42.83398438 63.18554688 C-47.77142344 63.15598137 -52.07386362 62.82102273 -57 62 C-57 45.17 -57 28.34 -57 11 C-49.08 10.67 -41.16 10.34 -33 10 C-22.31403903 8.58568164 -13.66561247 5.98462044 -4.03515625 1.42578125 C-1 0 -1 0 0 0 Z " fill="#515B67" transform="translate(277,346)"/>
<path d="M0 0 C9.29350507 3.66785984 17.00256058 9.12585847 23.88916016 16.35546875 C24.45892578 16.9175 25.02869141 17.47953125 25.61572266 18.05859375 C32.05355769 24.85958871 37.26909282 34.84478136 37.18212891 44.2890625 C36.58059995 48.53184675 33.81859071 51.4260382 30.88916016 54.35546875 C22.61285147 57.10234706 14.59426446 55.51908536 6.87353516 51.96875 C-5.32305357 45.37556787 -14.6338718 36.5830159 -21.11083984 24.35546875 C-21.72958984 23.22109375 -22.34833984 22.08671875 -22.98583984 20.91796875 C-24.54156853 15.99149458 -24.95680268 11.4696986 -24.11083984 6.35546875 C-19.43400756 -2.53051259 -8.71532267 -2.66116723 0 0 Z " fill="#EAF5FD" transform="translate(117.11083984375,276.64453125)"/>
<path d="M0 0 C3.80303152 1.4940481 5.92082935 3.48140352 8 7 C6.83702301 11.69224241 4.65182548 15.85752856 2.4375 20.125 C-11.74858008 48.09634919 -20.50733611 76.16130048 -26 107 C-26.65484375 106.73058594 -27.3096875 106.46117187 -27.984375 106.18359375 C-30.29812809 105.27547563 -32.609468 104.42171988 -34.953125 103.59765625 C-35.654375 103.34693359 -36.355625 103.09621094 -37.078125 102.83789062 C-38.53868756 102.31644878 -40.00232777 101.8035562 -41.46875 101.29882812 C-43.34614671 100.61914098 -45.1782834 99.81727697 -47 99 C-52.14764126 83.55707621 -35.8934506 53.91370566 -29.19140625 40.078125 C-21.5101523 24.77680111 -12.20561758 12.06816693 0 0 Z " fill="#7E8F99" transform="translate(289,150)"/>
<path d="M0 0 C8.2543702 6.94433472 16.36700216 14.50829324 20 25 C19.02157223 29.18638765 15.41437868 31.27938567 12.0625 33.625 C11.44769775 34.05594971 10.83289551 34.48689941 10.19946289 34.9309082 C-7.27445029 46.85624309 -28.39543902 57.2845831 -49.9375 57.0625 C-51.08089844 57.05347656 -52.22429687 57.04445312 -53.40234375 57.03515625 C-54.25957031 57.02355469 -55.11679688 57.01195312 -56 57 C-52.99621462 55.36087854 -49.90305583 54.25295394 -46.67016602 53.14916992 C-31.23994857 47.77981528 -16.76908445 38.872744 -8.484375 24.3046875 C-4.96867941 16.47763889 -2.53330549 8.18748063 0 0 Z " fill="#525C68" transform="translate(250,67)"/>
<path d="M0 0 C1.19025554 0.61605534 2.37518995 1.24249603 3.5546875 1.87890625 C7.44941998 3.92765381 11.30241175 5.89173102 15.4296875 7.44140625 C15.49223511 10.44369153 15.48097193 13.43893593 15.4296875 16.44140625 C15.42582031 17.1684375 15.42195313 17.89546875 15.41796875 18.64453125 C15.25706876 21.55182758 14.97561557 23.81488156 13.02734375 26.05078125 C11.3671875 27.44140625 11.3671875 27.44140625 8.4296875 29.44140625 C7.89859375 29.09207031 7.3675 28.74273437 6.8203125 28.3828125 C6.11390625 27.92777344 5.4075 27.47273438 4.6796875 27.00390625 C3.98359375 26.55144531 3.2875 26.09898437 2.5703125 25.6328125 C-1.71610264 23.24712524 -5.71573263 23.30589614 -10.5703125 23.12890625 C-16.80116911 22.82605428 -22.07423019 21.47010398 -27.90625 19.30078125 C-32.66203445 17.76665723 -36.80427867 17.85272831 -41.5703125 19.44140625 C-44.08729882 18.36885748 -46.23836795 16.89337173 -48.5703125 15.44140625 C-42.8867664 8.52230665 -33.05354759 6.46559569 -24.86254883 3.72314453 C-21.18745752 2.46960523 -17.87139645 1.09222004 -14.48046875 -0.80859375 C-9.17398898 -3.52470353 -5.33259859 -2.32790682 0 0 Z " fill="#F68A6E" transform="translate(260.5703125,123.55859375)"/>
<path d="M0 0 C0.66 0 1.32 0 2 0 C4.70153254 5.40306508 3.77842302 14.38959866 2.09375 20.0390625 C-0.82580933 26.23376851 -4.28808736 30.53600089 -10.79296875 33.1015625 C-17.34924697 34.93827869 -25.06562275 35.30875957 -31.375 32.4375 C-36.940752 29.11922925 -42.40594592 23.99875007 -45 18 C-44.6900076 13.8195311 -42.17578123 11.89576659 -39.1875 9.1875 C-38.31480469 8.37667969 -37.44210938 7.56585938 -36.54296875 6.73046875 C-34 5 -34 5 -31.86328125 5.0859375 C-28.8615479 6.55848594 -26.5314122 8.83775208 -24 11 C-19.73232821 13.54318401 -15.85317069 13.54766683 -11 13 C-6.80552103 11.44648927 -4.23055274 9.90346729 -2 6 C-1.27648573 4.01985568 -0.59734611 2.02178685 0 0 Z " fill="#E46C54" transform="translate(210,216)"/>
<path d="M0 0 C0 10.56 0 21.12 0 32 C-21.02702703 32 -21.02702703 32 -28 26 C-31.19605188 22.08707668 -32.74647675 18.22076754 -32.4453125 13.05078125 C-31.25926282 7.58871037 -28.1823957 3.96522098 -23.9375 0.5 C-16.79568421 -3.03972093 -7.48141575 -0.93517697 0 0 Z " fill="#F69A98" transform="translate(208,356)"/>
<path d="M0 0 C0.60585938 0.19190918 1.21171875 0.38381836 1.8359375 0.58154297 C7.84265335 2.44015947 13.82597921 3.94245336 20 5.125 C20.90065186 5.30401855 21.80130371 5.48303711 22.72924805 5.66748047 C28.04444395 6.66084427 33.08635648 7.12955824 38.48876953 7.12133789 C47.73506255 7.13590969 47.73506255 7.13590969 51.61328125 9.78515625 C53.80164888 12.39844964 55.37609403 15.00377912 57 18 C57.69351563 19.09570312 58.38703125 20.19140625 59.1015625 21.3203125 C67.2530459 34.33508498 70.9871209 47.6769305 69 63 C66.44140165 73.14382356 60.34567264 80.79899049 53 88 C50 87 50 87 48.61328125 84.7421875 C48 82 48 82 49.23046875 79.5703125 C49.87628906 78.76335937 50.52210938 77.95640625 51.1875 77.125 C59.14114364 66.59306323 60.31029721 54.91941757 59 42 C57.98971057 36.74179019 56.0535571 31.93632832 54 27 C53.65839844 25.90816406 53.31679688 24.81632812 52.96484375 23.69140625 C51.6705679 20.31751428 50.71872089 18.40184294 48 16 C42.90340526 14.34011221 37.43319738 14.35392781 32.12060547 14.12597656 C21.70960911 13.50750153 7.17918064 7.69120111 0 0 Z " fill="#525C68" transform="translate(294,263)"/>
<path d="M0 0 C2.37962857 2.37962857 3.00085365 4.35720965 4.1875 7.5 C10.98845804 24.06745011 23.72141759 35.70718803 39.76953125 43.3125 C44.74188198 45.39004132 49.74430392 46.83206754 55 48 C52.77232848 50.72390828 51.60861737 51.8965269 48.08203125 52.49609375 C33.64830878 52.23742489 22.24848541 47.34553164 11.6875 37.25 C3.79078493 28.90822047 -2.3042759 20.02787121 -2.25 8.25 C-2.25773437 6.55617188 -2.25773437 6.55617188 -2.265625 4.828125 C-2 2 -2 2 0 0 Z " fill="#91A2BD" transform="translate(81,296)"/>
<path d="M0 0 C6.02252615 5.54706356 6.02252615 5.54706356 7 10 C6.125 13.3125 6.125 13.3125 5 16 C4.34 15.67 3.68 15.34 3 15 C2.57589844 15.50789062 2.15179688 16.01578125 1.71484375 16.5390625 C-9.46103094 29.65536378 -21.80653495 34.22526438 -38 39 C-39.65 36.03 -41.3 33.06 -43 30 C-41.75605469 29.57589844 -40.51210938 29.15179688 -39.23046875 28.71484375 C-22.3426594 22.82465567 -9.5432178 15.7670555 0 0 Z " fill="#525C68" transform="translate(400,239)"/>
<path d="M0 0 C1.19025554 0.61605534 2.37518995 1.24249603 3.5546875 1.87890625 C7.44941998 3.92765381 11.30241175 5.89173102 15.4296875 7.44140625 C15.4296875 8.76140625 15.4296875 10.08140625 15.4296875 11.44140625 C14.67558594 11.28285156 13.92148437 11.12429687 13.14453125 10.9609375 C-0.7151999 9.02261548 -16.5123083 8.85579358 -29.5703125 14.44140625 C-30.59345962 15.41771049 -31.59685363 16.41555157 -32.5703125 17.44140625 C-36.23098044 19.0234391 -39.87507811 20.0497144 -43.71484375 18.671875 C-45.6328125 17.56640625 -45.6328125 17.56640625 -48.5703125 15.44140625 C-42.8867664 8.52230665 -33.05354759 6.46559569 -24.86254883 3.72314453 C-21.18745752 2.46960523 -17.87139645 1.09222004 -14.48046875 -0.80859375 C-9.17398898 -3.52470353 -5.33259859 -2.32790682 0 0 Z " fill="#BE5F50" transform="translate(260.5703125,123.55859375)"/>
<path d="M0 0 C3.73978404 0.99633135 7.44599766 1.47947607 11.28125 1.94921875 C13.22064453 2.20058594 13.22064453 2.20058594 15.19921875 2.45703125 C16.15441406 2.57820312 17.10960937 2.699375 18.09375 2.82421875 C13.71262576 6.77441273 8.93091169 8.97063186 3.59375 11.32421875 C2.26114136 11.91577759 2.26114136 11.91577759 0.90161133 12.51928711 C-17.78087417 20.67309092 -17.78087417 20.67309092 -26.90625 19.82421875 C-27.25271885 16.63894057 -27.21227757 15.24260427 -25.2890625 12.61328125 C-22.870505 10.29514828 -20.42579108 8.03256651 -17.90625 5.82421875 C-17.101875 5.09589844 -16.2975 4.36757812 -15.46875 3.6171875 C-9.99937391 -0.82668057 -6.80371814 -1.84756139 0 0 Z " fill="#505A66" transform="translate(169.90625,136.17578125)"/>
<path d="M0 0 C-0.39947717 8.6287069 -2.87914516 15.70912142 -9 22 C-15.68839972 27.12685185 -15.68839972 27.12685185 -19.140625 26.79296875 C-21 26 -21 26 -22.75 23.4375 C-24.51670289 18.57906704 -25.08192785 14.64471252 -23.12109375 9.8515625 C-17.55935547 -0.02373518 -10.55739614 -0.62408253 0 0 Z " fill="#F9D7CD" transform="translate(200,355)"/>
<path d="M0 0 C8.09806435 2.3547563 17.11058542 5.73062319 23 12 C23.375 15.1875 23.375 15.1875 23 18 C20.80672506 20.19327494 15.60517567 19.30818093 12.57470703 19.32348633 C3.2596814 19.1782288 -4.78498941 16.25376661 -13 12 C-13 11.34 -13 10.68 -13 10 C-11.25832301 8.6019984 -9.45529359 7.27979397 -7.625 6 C-3.62788786 3.21935232 -3.62788786 3.21935232 0 0 Z " fill="#515B67" transform="translate(278,102)"/>
<path d="M0 0 C2.3125 1.25 2.3125 1.25 4 3 C4.25 5.6875 4.25 5.6875 4 8 C3.34 7.34 2.68 6.68 2 6 C1.58492187 6.3403125 1.16984375 6.680625 0.7421875 7.03125 C-8.86768705 14.59048186 -19.77876926 20.23670205 -31 25 C-35 19.375 -35 19.375 -35 16 C-34.410979 15.69819824 -33.82195801 15.39639648 -33.21508789 15.08544922 C-30.49465942 13.68752898 -27.77859449 12.28132122 -25.0625 10.875 C-24.13630859 10.400625 -23.21011719 9.92625 -22.25585938 9.4375 C-16.86982752 6.64054311 -11.90323052 3.68710535 -7.06811523 0.00830078 C-4.31831054 -1.3323548 -2.87353771 -0.88936536 0 0 Z " fill="#F79B98" transform="translate(216,140)"/>
<path d="M0 0 C2.6875 0.625 2.6875 0.625 4.625 1.6875 C5.6875 3.625 5.6875 3.625 5.8125 7 C4.50314721 11.21902565 3.24918791 12.47419623 -0.40234375 14.74609375 C-3.22638356 16.04549857 -5.27018266 16.17814861 -8.3125 15.625 C-10.1875 14.4375 -10.1875 14.4375 -11.3125 12.625 C-11.70204922 9.50860627 -11.70453436 8.13942072 -9.7734375 5.60546875 C-4.16666337 0.7861629 -4.16666337 0.7861629 0 0 Z " fill="#363C48" transform="translate(210.3125,154.375)"/>
<path d="M0 0 C5.24569384 3.36262426 10.11528387 7.13564679 15 11 C13.68197635 14.64991166 12.40785992 16.7895201 10 20 C5.05 16.04 0.1 12.08 -5 8 C-2.75 2.375 -2.75 2.375 0 0 Z " fill="#90A2BC" transform="translate(156,340)"/>
<path d="M0 0 C2 2 2 2 2.3125 4.9375 C2 8 2 8 0.875 9.875 C-1.88090884 11.52854531 -3.85075452 11.39365568 -7 11 C-8.875 9.8125 -8.875 9.8125 -10 8 C-10.42317323 5.17884512 -10.38718434 3.66049093 -8.9375 1.1875 C-5.94449731 -0.646921 -3.42183337 -0.31107576 0 0 Z " fill="#343B47" transform="translate(259,234)"/>
<path d="M0 0 C1.32 0.66 2.64 1.32 4 2 C4 2.33 4 2.66 4 3 C1 4 -2 5 -5 6 C-5.33 5.34 -5.66 4.68 -6 4 C-4.02 2.68 -2.04 1.36 0 0 Z " fill="#EBC8C0" transform="translate(208,152)"/>
</svg>
